Flexion_states
version=1
nRows=14
nColumns=41
inDegrees=yes

# SIMM Motion File Header:
name Flexion_states
datacolumns 41
datarows 14
otherdata 1
range 2.12035056 4.41456426
endheader
time	/jointset/ground_thorax/thorax_tilt/value	/jointset/ground_thorax/thorax_tilt/speed	/jointset/ground_thorax/thorax_list/value	/jointset/ground_thorax/thorax_list/speed	/jointset/ground_thorax/thorax_rotation/value	/jointset/ground_thorax/thorax_rotation/speed	/jointset/ground_thorax/thorax_tx/value	/jointset/ground_thorax/thorax_tx/speed	/jointset/ground_thorax/thorax_ty/value	/jointset/ground_thorax/thorax_ty/speed	/jointset/ground_thorax/thorax_tz/value	/jointset/ground_thorax/thorax_tz/speed	/jointset/sternoclavicular/sternoclavicular_r2/value	/jointset/sternoclavicular/sternoclavicular_r2/speed	/jointset/sternoclavicular/sternoclavicular_r3/value	/jointset/sternoclavicular/sternoclavicular_r3/speed	/jointset/unrotscap/unrotscap_r3/value	/jointset/unrotscap/unrotscap_r3/speed	/jointset/unrotscap/unrotscap_r2/value	/jointset/unrotscap/unrotscap_r2/speed	/jointset/acromioclavicular/acromioclavicular_r2/value	/jointset/acromioclavicular/acromioclavicular_r2/speed	/jointset/acromioclavicular/acromioclavicular_r3/value	/jointset/acromioclavicular/acromioclavicular_r3/speed	/jointset/acromioclavicular/acromioclavicular_r1/value	/jointset/acromioclavicular/acromioclavicular_r1/speed	/jointset/unrothum/unrothum_r1/value	/jointset/unrothum/unrothum_r1/speed	/jointset/unrothum/unrothum_r3/value	/jointset/unrothum/unrothum_r3/speed	/jointset/unrothum/unrothum_r2/value	/jointset/unrothum/unrothum_r2/speed	/jointset/shoulder0/elv_angle/value	/jointset/shoulder0/elv_angle/speed	/jointset/shoulder1/shoulder_elv/value	/jointset/shoulder1/shoulder_elv/speed	/jointset/shoulder1/shoulder1_r2/value	/jointset/shoulder1/shoulder1_r2/speed	/jointset/shoulder2/shoulder_rot/value	/jointset/shoulder2/shoulder_rot/speed
      2.12035056	      0.00000000	     -0.00000000	     -0.00000000	      0.00000000	     -0.00000000	     -0.00000000	      0.00000000	      0.00000000	     -0.00000000	     -0.00000000	     -0.00000000	     -0.00000000	    -13.25434580	     16.65044500	      5.61391089	     -7.05233709	     -5.61391089	      7.05233709	     13.25434580	    -16.65044500	     -2.68371475	      3.37135046	     21.68854911	    -27.24570488	      9.74907291	    -12.24703239	     -9.74907291	     12.24703239	    -21.68854911	     27.24570488	      2.68371475	     -3.37135046	     90.00000000	      0.00000000	     54.77054265	    -68.80414333	    -90.00000000	      0.00000000	     -0.00000000	      0.00000000
      2.17789485	      0.00000000	     -0.00000000	     -0.00000000	      0.00000000	     -0.00000000	     -0.00000000	      0.00000000	      0.00000000	     -0.00000000	     -0.00000000	     -0.00000000	     -0.00000000	    -12.31106737	     16.09331082	      5.21438298	     -6.81636153	     -5.21438298	      6.81636153	     12.31106737	    -16.09331082	     -2.49272153	      3.25854299	     20.14502967	    -26.33404677	      9.05525593	    -11.83723912	     -9.05525593	     11.83723912	    -20.14502967	     26.33404677	      2.49272153	     -3.25854299	     90.00000000	      0.00000000	     50.87266101	    -66.50191418	    -90.00000000	      0.00000000	     -0.00000000	      0.00000000
      2.23543913	      0.00000000	     -0.00000000	     -0.00000000	      0.00000000	     -0.00000000	     -0.00000000	      0.00000000	      0.00000000	     -0.00000000	     -0.00000000	     -0.00000000	     -0.00000000	    -11.40519581	     15.37465757	      4.83069884	     -6.51197417	     -4.83069884	      6.51197417	     11.40519581	    -15.37465757	     -2.30930237	      3.11303145	     18.66272037	    -25.15808935	      8.38895311	    -11.30864246	     -8.38895311	     11.30864246	    -18.66272037	     25.15808935	      2.30930237	     -3.11303145	     90.00000000	      0.00000000	     47.12935462	    -63.53224453	    -90.00000000	      0.00000000	     -0.00000000	      0.00000000
      2.30656459	      0.00000000	     -0.00000000	     -0.00000000	      0.00000000	     -0.00000000	     -0.00000000	      0.00000000	      0.00000000	     -0.00000000	     -0.00000000	     -0.00000000	     -0.00000000	    -10.34584467	     14.40537761	      4.38200805	     -6.10143325	     -4.38200805	      6.10143325	     10.34584467	    -14.40537761	     -2.09480697	      2.91677348	     16.92926710	    -23.57202267	      7.60976027	    -10.59570036	     -7.60976027	     10.59570036	    -16.92926710	     23.57202267	      2.09480697	     -2.91677348	     90.00000000	      0.00000000	     42.75182913	    -59.52691749	    -90.00000000	      0.00000000	     -0.00000000	      0.00000000
      2.39530878	      0.00000000	     -0.00000000	      0.00000000	      0.00000000	     -0.00000000	     -0.00000000	      0.00000000	      0.00000000	     -0.00000000	     -0.00000000	     -0.00000000	     -0.00000000	     -9.12251401	     13.16203811	      3.86386333	     -5.57481374	     -3.86386333	      5.57481374	      9.12251401	    -13.16203811	     -1.84710930	      2.66502446	     14.92748839	    -21.53750282	      6.70995427	     -9.68117712	     -6.70995427	      9.68117712	    -14.92748839	     21.53750282	      1.84710930	     -2.66502446	     90.00000000	      0.00000000	     37.69669587	    -54.38910233	    -90.00000000	      0.00000000	     -0.00000000	      0.00000000
      2.51653481	      0.00000000	     -0.00000000	      0.00000000	      0.00000000	     -0.00000000	     -0.00000000	      0.00000000	      0.00000000	     -0.00000000	     -0.00000000	     -0.00000000	     -0.00000000	     -7.63019430	     11.45948041	      3.23178764	     -4.85369122	     -3.23178764	      4.85369122	      7.63019430	    -11.45948041	     -1.54494724	      2.32029382	     12.48555352	    -18.75154817	      5.61229665	     -8.42888150	     -5.61229665	      8.42888150	    -12.48555352	     18.75154817	      1.54494724	     -2.32029382	     90.00000000	      0.00000000	     31.53002713	    -47.35367330	    -90.00000000	      0.00000000	     -0.00000000	      0.00000000
      2.70643754	      0.00000000	      0.00000000	      0.00000000	      0.00000000	     -0.00000000	     -0.00000000	      0.00000000	      0.00000000	     -0.00000000	     -0.00000000	     -0.00000000	     -0.00000000	     -5.70561338	      8.81517363	      2.41662663	     -3.73368856	     -2.41662663	      3.73368856	      5.70561338	     -8.81517363	     -1.15526175	      1.78487960	      9.33629451	    -14.42457660	      4.19669455	     -6.48389379	     -4.19669455	      6.48389379	     -9.33629451	     14.42457660	      1.15526175	     -1.78487960	     90.00000000	      0.00000000	     23.57713807	    -36.42668230	    -90.00000000	      0.00000000	     -0.00000000	      0.00000000
      3.07979491	      0.00000000	      0.00000000	      0.00000000	      0.00000000	     -0.00000000	     -0.00000000	      0.00000000	      0.00000000	     -0.00000000	     -0.00000000	     -0.00000000	     -0.00000000	     -3.36943627	      3.72473869	      1.42713305	     -1.57762227	     -1.42713305	      1.57762227	      3.36943627	     -3.72473869	     -0.68223705	      0.75417801	      5.51352629	     -6.09492005	      2.47834788	     -2.73968626	     -2.47834788	      2.73968626	     -5.51352629	      6.09492005	      0.68223705	     -0.75417801	     90.00000000	      0.00000000	     13.92342224	    -15.39162795	    -90.00000000	      0.00000000	      0.00000000	      0.00000000
      3.75575128	      0.00000000	      0.00000000	      0.00000000	      0.00000000	     -0.00000000	     -0.00000000	      0.00000000	      0.00000000	     -0.00000000	     -0.00000000	     -0.00000000	     -0.00000000	     -3.85628446	     -5.07040159	      1.63333881	      2.14758111	     -1.63333881	     -2.14758111	      3.85628446	      5.07040159	     -0.78081315	     -1.02664528	      6.31017300	      8.29687527	      2.83644315	      3.72947225	     -2.83644315	     -3.72947225	     -6.31017300	     -8.29687527	      0.78081315	      1.02664528	     90.00000000	      0.00000000	     15.93521068	     20.95227111	    -90.00000000	      0.00000000	      0.00000000	      0.00000000
      3.92365892	      0.00000000	      0.00000000	      0.00000000	      0.00000000	     -0.00000000	     -0.00000000	      0.00000000	      0.00000000	     -0.00000000	     -0.00000000	     -0.00000000	     -0.00000000	     -4.88396924	     -7.16437218	      2.06861723	      3.03448752	     -2.06861723	     -3.03448752	      4.88396924	      7.16437218	     -0.98889681	     -1.45062846	      7.99180950	     11.72331250	      3.59234419	      5.26966685	     -3.59234419	     -5.26966685	     -7.99180950	    -11.72331250	      0.98889681	      1.45062846	     90.00000000	      0.00000000	     20.18188219	     29.60512408	    -90.00000000	      0.00000000	      0.00000000	      0.00000000
      4.04253674	      0.00000000	      0.00000000	      0.00000000	      0.00000000	     -0.00000000	     -0.00000000	      0.00000000	      0.00000000	     -0.00000000	     -0.00000000	     -0.00000000	     -0.00000000	     -5.82258882	     -8.62369840	      2.46617187	      3.65258875	     -2.46617187	     -3.65258875	      5.82258882	      8.62369840	     -1.17894672	     -1.74611006	      9.52770552	     14.11125899	      4.28273442	      6.34305651	     -4.28273442	     -6.34305651	     -9.52770552	    -14.11125899	      1.17894672	      1.74611006	     90.00000000	      0.00000000	     24.06051225	     35.63545483	    -90.00000000	      0.00000000	      0.00000000	      0.00000000
      4.18185232	      0.00000000	      0.00000000	      0.00000000	      0.00000000	     -0.00000000	     -0.00000000	      0.00000000	      0.00000000	     -0.00000000	     -0.00000000	     -0.00000000	     -0.00000000	     -7.14169024	    -10.30851540	      3.02488053	      4.36619715	     -3.02488053	     -4.36619715	      7.14169024	     10.30851540	     -1.44603587	     -2.08724861	     11.68619725	     16.86818391	      5.25298343	      7.58230318	     -5.25298343	     -7.58230318	    -11.68619725	    -16.86818391	      1.44603587	      2.08724861	     90.00000000	      0.00000000	     29.51139616	     42.59757449	    -90.00000000	      0.00000000	      0.00000000	      0.00000000
      4.29807751	      0.00000000	      0.00000000	      0.00000000	      0.00000000	     -0.00000000	     -0.00000000	      0.00000000	      0.00000000	     -0.00000000	     -0.00000000	     -0.00000000	     -0.00000000	     -8.42039262	    -11.69171793	      3.56647809	      4.95205600	     -3.56647809	     -4.95205600	      8.42039262	     11.69171793	     -1.70494510	     -2.36731683	     13.77858264	     19.13156654	      6.19351742	      8.59970098	     -6.19351742	     -8.59970098	    -13.77858264	    -19.13156654	      1.70494510	      2.36731683	     90.00000000	      0.00000000	     34.79534037	     48.31334157	    -90.00000000	      0.00000000	      0.00000000	      0.00000000
      4.41456426	      0.00000000	      0.00000000	      0.00000000	      0.00000000	     -0.00000000	     -0.00000000	      0.00000000	      0.00000000	     -0.00000000	     -0.00000000	     -0.00000000	     -0.00000000	     -9.86185354	    -13.05123542	      4.17701242	      5.52788298	     -4.17701242	     -5.52788298	      9.86185354	     13.05123542	     -1.99680936	     -2.64258934	     16.13729551	     21.35619250	      7.25376648	      9.59967754	     -7.25376648	     -9.59967754	    -16.13729551	    -21.35619250	      1.99680936	      2.64258934	     90.00000000	      0.00000000	     40.75184686	     53.93123561	    -90.00000000	      0.00000000	      0.00000000	      0.00000000
